{"title":"Black Hawk Down (PSP + Ipod touch + Zune)","uid":5642493,"size":574668320,"categoryP":"video","categoryS":"handheld","magnet":"?xt=urn:btih:1aa6a117009648cbaac2ceddf5ef63e5611eb5f3&amp;dn=Black+Hawk+Down+%28PSP+%2B+Ipod+touch+%2B+Zune%29&amp;tr=udp%3A%2F%2Ftracker.openbittorrent.com%3A80&amp;tr=udp%3A%2F%2Fopen.demonii.com%3A1337&amp;tr=udp%3A%2F%2Ftracker.coppersurfer.tk%3A6969&amp;tr=udp%3A%2F%2Fexodus.desync.com%3A6969","seeders":0,"leechers":1,"uploader":"on.off.on","files":-1,"time":1277164550,"description":"Black Hawk Down\n\nsource:\nBlack Hawk Down 1080p BDRip[ x264 - dts - mkv ] (oan) &lt;a href=&quot;\nhttp://www.imdb.com/title/tt0265086/&quot; rel=&quot;nofollow&quot; target=&quot;_NEW&quot;&gt;\nhttp://www.imdb.com/title/tt0265086/&lt;/a&gt;\n\n\nID                               : 1\nFormat                           : AVC\nFormat/Info                      : Advanced Video Codec\nFormat profile                   : &lt;a class=&quot;__cf_email__&quot; href=&quot;/cdn-cgi/l/email-protection&quot; data-cfemail=&quot;c785a6b4a2abaea9a2878bf5e9f7&quot;&gt;[email&amp;#160;protected]&lt;/a&gt;&lt;script cf-hash='f9e31' type=&quot;text/javascript&quot;&gt;\n/* &lt;![CDATA[ */!function(){try{var t=&quot;currentScript&quot;in document?document.currentScript:function(){for(var t=document.getElementsByTagName(&quot;script&quot;),e=t.length;e--;)if(t[e].getAttribute(&quot;cf-hash&quot;))return t[e]}();if(t&amp;&amp;t.previousSibling){var e,r,n,i,c=t.previousSibling,a=c.getAttribute(&quot;data-cfemail&quot;);if(a){for(e=&quot;&quot;,r=parseInt(a.substr(0,2),16),n=2;a.length-n;n+=2)i=parseInt(a.substr(n,2),16)^r,e+=String.fromCharCode(i);e=document.createTextNode(e),c.parentNode.replaceChild(e,c)}}}catch(u){}}();/* ]]&gt; */&lt;/script&gt;\nFormat settings, CABAC           : No\nFormat settings, ReFrames        : 3 frames\nCodec ID                         : avc1\nCodec ID/Info                    : Advanced Video Coding\nDuration                         : 2h 24mn\nBit rate mode                    : Variable\nBit rate                         : 400 Kbps\nWidth                            : 480 pixels\nHeight                           : 208 pixels\nDisplay aspect ratio             : 2.35:1\nFrame rate mode                  : Variable\nFrame rate                       : 23.976 fps\nMinimum frame rate               : 23.810 fps\nMaximum frame rate               : 24.390 fps\nColor space                      : YUV\nChroma subsampling               : 4:2:0\nBit depth                        : 8 bits\nScan type                        : Progressive\nBits/(Pixel*Frame)               : 0.167\nStream size                      : 413 MiB (75%)\nWriting library                  : x264 core 79\n\nID                               : 2\nFormat                           : AAC\nFormat/Info                      : Advanced Audio Codec\nFormat version                   : Version 4\nFormat profile                   : LC\nFormat settings, SBR             : No\nCodec ID                         : 40\nDuration                         : 2h 24mn\nBit rate mode                    : Variable\nBit rate                         : 127 Kbps\nMaximum bit rate                 : 167 Kbps\nChannel(s)                       : 2 channels\nChannel positions                : Front: L R\nSampling rate                    : 48.0 KHz\nStream size                      : 131 MiB (24%)\nLanguage                         : English &lt;a href=&quot;\nhttp://img52.imageshack.us/img52/8470/vlcsnap00001v.png&quot; rel=&quot;nofollow&quot; target=&quot;_NEW&quot;&gt;\nhttp://img52.imageshack.us/img52/8470/vlcsnap00001v.png&lt;/a&gt; &lt;a href=&quot;\nhttp://img193.imageshack.us/img193/4564/vlcsnap00002wr.png&quot; rel=&quot;nofollow&quot; target=&quot;_NEW&quot;&gt;\nhttp://img193.imageshack.us/img193/4564/vlcsnap00002wr.png&lt;/a&gt; &lt;a href=&quot;\nhttp://img408.imageshack.us/img408/9777/vlcsnap00003ni.png&quot; rel=&quot;nofollow&quot; target=&quot;_NEW&quot;&gt;\nhttp://img408.imageshack.us/img408/9777/vlcsnap00003ni.png&lt;/a&gt; &lt;a href=&quot;\nhttp://img692.imageshack.us/img692/1433/vlcsnap00004x.png&quot; rel=&quot;nofollow&quot; target=&quot;_NEW&quot;&gt;\nhttp://img692.imageshack.us/img692/1433/vlcsnap00004x.png&lt;/a&gt; &lt;a href=&quot;\nhttp://img197.imageshack.us/img197/6678/vlcsnap00005i.png&quot; rel=&quot;nofollow&quot; target=&quot;_NEW&quot;&gt;\nhttp://img197.imageshack.us/img197/6678/vlcsnap00005i.png&lt;/a&gt; &lt;a href=&quot;\nhttp://img444.imageshack.us/img444/4379/vlcsnap00006p.png&quot; rel=&quot;nofollow&quot; target=&quot;_NEW&quot;&gt;\nhttp://img444.imageshack.us/img444/4379/vlcsnap00006p.png&lt;/a&gt; &lt;a href=&quot;\nhttp://img340.imageshack.us/img340/1359/vlcsnap00007k.png&quot; rel=&quot;nofollow&quot; target=&quot;_NEW&quot;&gt;\nhttp://img340.imageshack.us/img340/1359/vlcsnap00007k.png&lt;/a&gt; &lt;a href=&quot;\nhttp://img20.imageshack.us/img20/9704/vlcsnap00008d.png&quot; rel=&quot;nofollow&quot; target=&quot;_NEW&quot;&gt;\nhttp://img20.imageshack.us/img20/9704/vlcsnap00008d.png&lt;/a&gt;\n\n\n\n\nPLEASE LET THE TORRENT SEED AND SHARE IT WITH ALL YOU KNOW!\n\nLet me know what I can do to be your trusted source of Handheld videos.\n\n\n\n\n\n-OOO","torrent":{"xt":"urn:btih:1aa6a117009648cbaac2ceddf5ef63e5611eb5f3","amp;dn":"Black+Hawk+Down+%28PSP+%2B+Ipod+touch+%2B+Zune%29","amp;tr":["udp%3A%2F%2Ftracker.openbittorrent.com%3A80","udp%3A%2F%2Fopen.demonii.com%3A1337","udp%3A%2F%2Ftracker.coppersurfer.tk%3A6969","udp%3A%2F%2Fexodus.desync.com%3A6969"],"infoHash":"1aa6a117009648cbaac2ceddf5ef63e5611eb5f3","infoHashBuffer":{"type":"Buffer","data":[26,166,161,23,0,150,72,203,170,194,206,221,245,239,99,229,97,30,181,243]},"announce":[],"urlList":[]}}